<svg xmlns="http://www.w3.org/2000/svg"  viewBox="0 0 64 64" width="24px" height="24px" baseProfile="basic"><ellipse cx="32" cy="61" opacity=".3" rx="20.125" ry="3"/><path fill="#fd3c4f" d="M37.5,52.5c-1.066,0-2.079-0.57-2.619-1.536l-5.653-10.117l-9.982,2.56	c-1.35,0.347-2.76-0.282-3.405-1.519l-12-23c-0.444-0.853-0.453-1.865-0.024-2.726s1.243-1.463,2.191-1.621l12-2	c1.245-0.206,2.494,0.39,3.112,1.495l11.093,19.851l11.383-2.918l-3.646-5.89c-0.512-0.826-0.591-1.849-0.214-2.744	c0.378-0.896,1.165-1.553,2.114-1.764l9-2c1.212-0.266,2.461,0.234,3.146,1.265l6,9c0.539,0.809,0.653,1.829,0.306,2.737	c-0.349,0.908-1.114,1.591-2.057,1.833l-5.251,1.346l5.057,8.169c0.497,0.803,0.587,1.793,0.243,2.672s-1.081,1.545-1.991,1.798	l-18,5C38.036,52.465,37.767,52.5,37.5,52.5z M35.239,39.305l3.729,6.674l11.876-3.299l-3.94-6.366L35.239,39.305z M11.073,19.779	l8.986,17.224l6.141-1.574l-9.289-16.622L11.073,19.779z M47.274,25.513l2.41,3.895l2.973-0.763l-2.513-3.771L47.274,25.513z"/><path fill="#fff" d="M18.007,12.541l-12,2c-0.948,0.158-1.763,0.761-2.191,1.621s-0.42,1.873,0.024,2.726	l12,23c0.646,1.236,2.056,1.865,3.405,1.519l1.438-0.369c0.269-1.129,0.168-2.352-0.411-3.462L9.549,19.02l9.28-1.547	c1.307-0.218,2.4-0.932,3.144-1.908l-0.854-1.529C20.501,12.931,19.252,12.335,18.007,12.541z" opacity=".3"/><path d="M58.051,42.921l-3.916-6.325c0,0,0,0,0,0c-2.284,1.414-3.032,4.368-1.733,6.689l-15.437,4.288	c-1.212,0.337-2.177,1.103-2.818,2.076l0.734,1.314c0.54,0.966,1.553,1.536,2.619,1.536c0.267,0,0.536-0.035,0.803-0.109l18-5	c0.91-0.253,1.647-0.919,1.991-1.798S58.548,43.724,58.051,42.921z" opacity=".15"/><path fill="#fff" d="M12.384,28.853c-0.55,0-1.079-0.304-1.342-0.828l-4.813-9.612c-0.215-0.429-0.212-0.934,0.008-1.359	c0.219-0.426,0.629-0.721,1.102-0.795l5.313-0.828c0.828-0.118,1.586,0.433,1.714,1.251c0.127,0.819-0.433,1.586-1.251,1.714	l-3.283,0.512l3.893,7.774c0.371,0.741,0.071,1.643-0.669,2.013C12.839,28.802,12.609,28.853,12.384,28.853z"/></svg>