<svg xmlns="http://www.w3.org/2000/svg"  viewBox="0 0 48 48" width="48px" height="48px"><linearGradient id="SVGID_1_" x1="39.599" x2="13.748" y1="13.748" y2="39.599" gradientUnits="userSpaceOnUse"><stop offset="0" stop-color="#6560fe"/><stop offset=".033" stop-color="#6f6afe"/><stop offset=".197" stop-color="#9a97fe"/><stop offset=".362" stop-color="#bfbdff"/><stop offset=".525" stop-color="#dbdaff"/><stop offset=".687" stop-color="#efeeff"/><stop offset=".846" stop-color="#fbfbff"/><stop offset="1" stop-color="#fff"/></linearGradient><path fill="url(#SVGID_1_)" d="M43.5,30c0-1.486-0.504-2.851-1.343-3.946c0.076-0.675,0.123-1.359,0.123-2.054	c0-10.095-8.184-18.279-18.279-18.279S5.721,13.905,5.721,24c0,10.095,8.184,18.279,18.279,18.279c3.071,0,5.959-0.766,8.5-2.104	v2.456c0,0.799,0.89,1.275,1.555,0.832l2.391-1.594c0.336-0.224,0.773-0.224,1.109,0l2.391,1.594	c0.665,0.443,1.555-0.033,1.555-0.832V34.8h-0.128C42.676,33.611,43.5,31.904,43.5,30z"/><circle cx="24" cy="24" r="2" fill="#8251fe"/><path fill="none" stroke="#8251fe" stroke-linecap="round" stroke-linejoin="round" stroke-miterlimit="10" stroke-width="3" d="M24,5.5c9.243,0,16.902,6.778,18.279,15.634"/><path fill="none" stroke="#8251fe" stroke-linecap="round" stroke-linejoin="round" stroke-miterlimit="10" stroke-width="3" d="M24,42.5C13.783,42.5,5.5,34.217,5.5,24c0-7.321,4.252-13.648,10.421-16.648"/><circle cx="24" cy="24" r="6.596" fill="none" stroke="#8251fe" stroke-miterlimit="10" stroke-width="3"/><path fill="none" stroke="#8251fe" stroke-linecap="round" stroke-linejoin="round" stroke-width="3" d="M32.5,34.8v7.831c0,0.799,0.89,1.275,1.555,0.832l2.391-1.594c0.336-0.224,0.773-0.224,1.109,0l2.391,1.594	c0.665,0.443,1.555-0.033,1.555-0.832V34.8"/><path fill="none" stroke="#8251fe" stroke-linecap="round" stroke-width="3" d="M35.376,23.705C35.895,23.571,36.439,23.5,37,23.5c3.59,0,6.5,2.91,6.5,6.5s-2.91,6.5-6.5,6.5	c-2.984,0-5.499-2.011-6.262-4.752"/></svg>