<svg xmlns="http://www.w3.org/2000/svg"  viewBox="0 0 24 24" width="24px" height="24px"><path fill="#878EB7" d="M12,18.5c6.626,0,12-2.908,12-6.5c0-3.592-5.374-6.5-12-6.5C5.374,5.5,0,8.408,0,12	C0,15.592,5.374,18.5,12,18.5L12,18.5z"/><path fill="#23282C" d="M5.029,15.641l0.326-1.73c1.541,0,2.497,0.117,3.382-0.737c0.979-0.927,1.234-2.576,0.536-3.402	C8.909,9.339,8.325,9.126,7.529,9.126h-2.65l-1.226,6.515H5.029L5.029,15.641z M6.068,10.154c1.424,0,2.392-0.158,2.115,1.325	v-0.001c-0.296,1.564-1.343,1.402-2.629,1.402L6.068,10.154L6.068,10.154z"/><path fill="#23282C" d="M10.759,13.904l0.704-3.731c1.114,0,1.575-0.046,1.778,0.179c0.21,0.232,0.101,0.486-0.476,3.553h1.388	c0.6-3.172,0.866-3.843,0.31-4.369c-0.528-0.502-1.623-0.413-2.805-0.413l0.326-1.73h-1.368L9.39,13.904H10.759L10.759,13.904z"/><path fill="#23282C" d="M15.787,15.641l0.326-1.73c1.62,0,2.516,0.097,3.383-0.737c0.979-0.927,1.234-2.576,0.536-3.402	c-0.364-0.433-0.949-0.646-1.744-0.646h-2.651l-1.23,6.515H15.787L15.787,15.641z M16.822,10.154c1.432,0,2.392-0.158,2.115,1.325	v-0.001c-0.3,1.588-1.376,1.402-2.629,1.402L16.822,10.154L16.822,10.154z"/><path fill="#767C9F" d="M8.032,12H5.72l-0.166,0.881c0.22,0,0.433,0.005,0.637,0.005C7.023,12.885,7.696,12.806,8.032,12L8.032,12z M24,12h-3.752c-0.155,0.436-0.409,0.849-0.752,1.174c-0.703,0.677-1.425,0.741-2.538,0.741c-0.259,0-0.539-0.004-0.844-0.004	l-0.326,1.73h-1.38L15.094,12h-0.571c-0.099,0.51-0.226,1.133-0.372,1.905h-1.388c0.154-0.817,0.275-1.435,0.365-1.905h-2.011	l-0.359,1.904H9.39L9.748,12H9.49c-0.155,0.436-0.409,0.849-0.752,1.174c-0.695,0.671-1.434,0.742-2.466,0.742	c-0.282,0-0.585-0.005-0.916-0.005l-0.326,1.73H3.652L4.338,12H0l0,0c0,3.592,5.374,6.5,12,6.5C18.626,18.5,24,15.592,24,12L24,12	L24,12z"/><path fill="#1E2326" d="M9.49,12H8.032c-0.337,0.806-1.009,0.885-1.842,0.885c-0.204,0-0.417-0.005-0.637-0.005L5.72,12H4.338	l-0.685,3.641h1.377l0.326-1.73c0.33,0,0.634,0.005,0.916,0.005c1.032,0,1.771-0.072,2.466-0.742C9.08,12.849,9.334,12.436,9.49,12	L9.49,12z"/><path fill="#1E2326" d="M11.118,12h-1.37L9.39,13.904h1.369L11.118,12L11.118,12z M14.524,12H13.13	c-0.09,0.471-0.211,1.088-0.365,1.905h1.388C14.298,13.133,14.424,12.509,14.524,12L14.524,12z"/><path fill="#767C9F" d="M18.788,12h-2.313l-0.166,0.881c0.238,0,0.469,0.007,0.69,0.007C17.795,12.887,18.455,12.8,18.788,12	L18.788,12z"/><path fill="#1E2326" d="M20.248,12h-1.46c-0.333,0.801-0.993,0.887-1.789,0.887c-0.221,0-0.452-0.007-0.69-0.007L16.474,12h-1.38	l-0.687,3.641h1.38l0.326-1.73c0.306,0,0.586,0.004,0.844,0.004c1.113,0,1.836-0.064,2.538-0.741	C19.839,12.849,20.093,12.436,20.248,12L20.248,12z"/></svg>