<svg xmlns="http://www.w3.org/2000/svg"  viewBox="0 0 96 96" width="288px" height="288px" baseProfile="basic"><path fill="#4d4dff" d="M78.401,78H17.283C12.858,78,10,75.178,10,70.811V36.908c0-1.657,1.343-3,3-3	s3,1.343,3,3v33.903C16,71.734,16.055,72,17.283,72h61.119c1.6,0,1.6-0.257,1.6-1.341c0-10.482-0.017-17.299-0.03-22.908	c-0.01-3.925-0.018-7.259-0.018-10.843c0-1.657,1.343-3,3-3s3,1.343,3,3c0,3.579,0.008,6.909,0.018,10.829	c0.013,5.613,0.03,12.434,0.03,22.922C86.001,75.255,83.16,78,78.401,78z" opacity=".3"/><path fill="#4d4dff" d="M78.401,77H17.283C13.407,77,11,74.628,11,70.811V36.908c0-1.104,0.896-2,2-2	s2,0.896,2,2v33.903C15,72.162,15.382,73,17.283,73h61.119c2.21,0,2.6-0.755,2.6-2.341c0-10.483-0.017-17.301-0.03-22.911	c-0.01-3.924-0.018-7.257-0.018-10.84c0-1.104,0.896-2,2-2s2,0.896,2,2c0,3.58,0.008,6.911,0.018,10.831	c0.013,5.612,0.03,12.432,0.03,22.92C85.001,74.688,82.596,77,78.401,77z" opacity=".3"/><path fill="#4d4dff" d="M83,34.908c-1.043,0-1.962-0.533-2.5-1.341c-0.538,0.809-1.457,1.341-2.5,1.341H16	c-3.309,0-6-2.691-6-6V25c0-4.383,2.451-7,6.557-7H80c1.521-0.031,2.909,0.517,3.965,1.587c2.251,2.284,2.118,6.103,2.039,8.384	L86,28.052v3.856C86,33.564,84.657,34.908,83,34.908z M16.095,24.034C16.054,24.185,16,24.483,16,25v3.908h62	c0.769,0,1.469,0.289,2,0.764V28c0-0.034,0-0.069,0.002-0.103l0.004-0.135c0.067-1.906-0.01-3.168-0.229-3.762l-63.221,0	C16.338,24,16.189,24.017,16.095,24.034z" opacity=".3"/><path fill="#4d4dff" d="M83,33.908c-1.104,0-2-0.896-2-2l0.006-4.111c0.038-1.08,0.138-3.949-0.602-4.7	c-0.041-0.041-0.099-0.099-0.363-0.098l-63.484,0C15.52,23,15,23,15,25v3.908c0,0.551,0.449,1,1,1h62c1.104,0,2,0.896,2,2	s-0.896,2-2,2H16c-2.757,0-5-2.243-5-5V25c0-5.221,3.481-6,5.557-6H80c1.253-0.032,2.395,0.419,3.252,1.289	c1.95,1.977,1.826,5.526,1.751,7.647l-0.004,0.132L85,31.908C85,33.012,84.104,33.908,83,33.908z" opacity=".3"/><path fill="#0fd2ff" d="M65,66H50c-1.657,0-3-1.343-3-3s1.343-3,3-3h15c1.657,0,3,1.343,3,3S66.657,66,65,66z" opacity=".3"/><path fill="#0fd2ff" d="M65,65H50c-1.104,0-2-0.896-2-2s0.896-2,2-2h15c1.104,0,2,0.896,2,2S66.104,65,65,65z" opacity=".3"/><path fill="#0fd2ff" d="M33.002,61.001c-1.141,0-2.231-0.654-2.734-1.761c-0.685-1.508-0.017-3.287,1.492-3.972	l10.742-4.875l-10.466-3.552c-1.569-0.533-2.409-2.236-1.876-3.805c0.533-1.569,2.238-2.408,3.805-1.876l10.559,3.584	c2.358,0.883,3.847,2.915,3.974,5.335s-1.141,4.597-3.308,5.681c-0.034,0.017-0.068,0.033-0.102,0.049L34.24,60.732	C33.838,60.914,33.417,61,33.002,61.001z M43.847,53.077h0.01H43.847z" opacity=".3"/><path fill="#0fd2ff" d="M33.001,60c-0.76,0-1.487-0.436-1.822-1.174c-0.457-1.006-0.011-2.191,0.995-2.648	l10.847-4.923c0.461-0.232,0.494-0.718,0.483-0.915c-0.01-0.196-0.094-0.676-0.647-0.884l-10.5-3.563	c-1.046-0.355-1.606-1.491-1.251-2.537c0.355-1.045,1.49-1.606,2.537-1.251l10.559,3.584c1.95,0.73,3.191,2.424,3.296,4.441	c0.106,2.017-0.951,3.831-2.757,4.734l-10.915,4.956C33.559,59.943,33.278,60,33.001,60z" opacity=".3"/><path fill="#4d4dff" d="M78.401,76H17.283C13.975,76,12,74.06,12,70.811V36.908c0-0.552,0.448-1,1-1s1,0.448,1,1v33.903	C14,72.957,15.074,74,17.283,74h61.119c2.523,0,3.6-0.999,3.6-3.341c0-10.484-0.017-17.302-0.03-22.913	c-0.01-3.923-0.018-7.255-0.018-10.838c0-0.552,0.448-1,1-1s1,0.448,1,1c0,3.581,0.008,6.912,0.018,10.833	c0.013,5.611,0.03,12.431,0.03,22.917C84.001,74.103,82.012,76,78.401,76z"/><path fill="#4d4dff" d="M83,32.908c-0.552,0-1-0.448-1-1l0.005-4.076c0.053-1.53,0.153-4.379-0.89-5.436	c-0.275-0.279-0.629-0.408-1.095-0.396H16.557C14.938,22,14,22.491,14,25v3.908c0,1.103,0.897,2,2,2h62c0.552,0,1,0.448,1,1	s-0.448,1-1,1H16c-2.206,0-4-1.794-4-4V25c0-3.318,1.533-5,4.557-5H80c1.012-0.016,1.88,0.322,2.541,0.991	c1.647,1.67,1.532,4.951,1.464,6.91L84,28.034l0,3.874C84,32.46,83.552,32.908,83,32.908z"/><path fill="#0fd2ff" d="M65,64H50c-0.552,0-1-0.448-1-1s0.448-1,1-1h15c0.552,0,1,0.448,1,1S65.552,64,65,64z"/><path fill="#0fd2ff" d="M33,59c-0.38,0-0.744-0.218-0.911-0.587c-0.228-0.502-0.005-1.095,0.498-1.324l10.847-4.923	c0.699-0.351,1.112-1.059,1.069-1.877s-0.527-1.48-1.295-1.768l-10.529-3.574c-0.523-0.177-0.803-0.745-0.625-1.268	c0.177-0.523,0.746-0.805,1.268-0.625l10.559,3.584c1.542,0.578,2.535,1.933,2.62,3.546c0.084,1.614-0.76,3.065-2.206,3.788	l-10.881,4.939C33.279,58.971,33.139,59,33,59z"/></svg>